<svg width="480" height="525" viewBox="0 0 480 525" fill="none" xmlns="http://www.w3.org/2000/svg">
<g filter="url(#filter0_dd_8_16)">
<path d="M100.642 282.332L199.437 166.951L112.541 134.14L25.6452 101.329L100.642 282.332Z" fill="url(#paint0_linear_8_16)"/>
<path d="M100.642 282.332L25.6452 399.154L220.349 472.709L199.437 443.143L100.642 282.332Z" fill="url(#paint1_linear_8_16)"/>
<path d="M278.761 166.951L374.671 282.332L455.437 99.8864L278.761 166.951Z" fill="url(#paint2_linear_8_16)"/>
<path d="M374.671 282.332L260.732 472.709L455.437 399.154L376.854 285.489L374.671 282.332Z" fill="url(#paint3_linear_8_16)"/>
<path d="M201.6 78.2526L240.147 11.909L240.541 9.02448L28.5297 78.2526L25.5672 84.0217L28.5297 87.6273L166.966 136.598L170.198 129.453L64.1923 92.6752L201.6 78.2526Z" fill="url(#paint4_linear_8_16)"/>
<path d="M422.592 88.3484L310.096 129.453L314.033 135.561L453.994 84.0217L460.485 96.5692L462.2 99.8864L464.811 104.934L450.389 76.8104L240.541 9.02448L240.147 11.909L280.203 78.2526L422.592 88.3484Z" fill="url(#paint5_linear_8_16)"/>
<path fill-rule="evenodd" clip-rule="evenodd" d="M280.203 78.2526L240.147 11.909L201.6 78.2526L170.198 129.453L166.966 136.598L230 158.896C237.175 157.984 243.956 157.978 250.762 158.861L314.033 135.561L310.096 129.453L280.203 78.2526ZM199.477 137.92L238.024 68.1569L274.5 137.92C259.29 131.616 249.916 129.542 235.493 129.453C221.071 129.363 213.225 131.569 199.477 137.92Z" fill="url(#paint6_linear_8_16)"/>
<path d="M238.024 68.1569L199.477 137.92C213.225 131.569 221.071 129.363 235.493 129.453L238.024 68.1569Z" fill="url(#paint7_linear_8_16)"/>
<path d="M235.493 129.453C249.916 129.542 259.29 131.616 274.5 137.92L238.024 68.1569L235.493 129.453Z" fill="url(#paint8_linear_8_16)"/>
<path d="M170.198 129.453L201.6 78.2526L64.1923 92.6752L170.198 129.453Z" fill="url(#paint9_linear_8_16)"/>
<path d="M310.096 129.453L422.592 88.3484L280.203 78.2526L310.096 129.453Z" fill="url(#paint10_linear_8_16)"/>
<path d="M28.5297 87.6273L25.5672 84.0217L19.8762 95.1042L25.6452 101.329L112.541 134.14L199.437 166.951C210.875 162.743 220.764 160.07 230 158.896L166.966 136.598L28.5297 87.6273Z" fill="url(#paint11_linear_8_16)"/>
<path d="M100.642 282.332L25.6452 101.329L19.8762 95.1042L17.3522 100.019L19.4784 104.934L96.2189 282.332C97.4534 285.231 99.6822 283.54 100.642 282.332Z" fill="url(#paint12_linear_8_16)"/>
<path fill-rule="evenodd" clip-rule="evenodd" d="M460.485 402.76L457.24 409.61L240.541 490.016L237.983 489.08L19.8762 409.25L19.6713 396.9L25.5672 388.075L96.2189 282.332C97.4534 285.231 99.6822 283.54 100.642 282.332L25.6452 399.154L220.349 472.709L199.437 443.143L100.642 282.332L199.437 166.951C239.287 157.58 252.199 160.654 271.835 165.329C274.043 165.855 276.335 166.401 278.761 166.951L374.671 282.332L260.732 472.709L455.437 399.154L376.854 285.489L378.969 280.889L455.437 388.431L460.588 395.675L460.485 402.76ZM148.237 341.464L239.82 482.805L328.518 341.464L372.507 281.61L302.486 270.67C315.298 267.882 328.356 264.485 343.662 259.977L291.02 196.517L256.369 248.671L249.74 241.194C253.515 214.637 260.466 205.521 269.204 172.975C244.408 167.144 227.477 166.127 206.85 172.544C212.991 199.607 219.52 215.22 221.613 236.679C217.53 241.171 216.075 243.12 212.645 247.035C202.958 230.894 196.41 217.469 186.456 196.517L131.651 259.977C133.294 262.415 148.055 266.733 166.966 270.914L101.363 281.61L148.237 341.464ZM190.783 194.602L205.298 177.115L217.53 237.8L190.783 194.602ZM274.5 175.935L287.648 194.602L259.467 237.8L274.5 175.935Z" fill="url(#paint13_linear_8_16)"/>
<path d="M250.762 158.861C243.956 157.978 237.175 157.984 230 158.896C220.764 160.07 210.875 162.743 199.437 166.951C239.287 157.58 252.199 160.654 271.835 165.329C274.043 165.855 276.335 166.401 278.761 166.951C268.744 162.734 259.731 160.025 250.762 158.861Z" fill="#242427"/>
<path d="M225.397 402.039L239.82 482.805L234.396 299.058C227.735 298.854 220.2 297.646 208.746 295.502L175.64 306.129L203.763 357.329L225.397 402.039Z" fill="url(#paint14_linear_8_16)"/>
<path d="M239.82 482.805L252.8 402.039L270.107 357.329L293.183 306.129L259.467 295.438C248.959 298.131 242.292 299.3 234.396 299.058L239.82 482.805Z" fill="url(#paint15_linear_8_16)"/>
<path d="M101.363 281.61L175.64 306.129L208.746 295.502C206.104 295.007 203.254 294.463 200.158 293.87L190.783 280.889C192.672 278.993 194.097 277.639 195.387 276.501C185.617 274.807 175.835 272.876 166.966 270.914L101.363 281.61Z" fill="url(#paint16_linear_8_16)"/>
<path d="M293.183 306.129L372.507 281.61L302.486 270.67C292.457 272.852 282.58 274.661 271.892 276.34C273.916 277.849 275.859 279.429 277.318 280.889L270.828 292.402C266.543 293.571 262.811 294.582 259.467 295.438L293.183 306.129Z" fill="url(#paint17_linear_8_16)"/>
<path d="M271.892 276.34C282.58 274.661 292.457 272.852 302.486 270.67L250.954 262.618L246.914 268.733C255.632 268.987 261.454 269.351 261.454 269.351C261.454 269.351 266.919 272.63 271.892 276.34Z" fill="#1B202B"/>
<path d="M166.966 270.914C175.835 272.876 185.617 274.807 195.387 276.501C197.216 274.887 198.773 273.705 200.997 272.018L201.001 272.016C201.125 271.921 201.251 271.826 201.379 271.728C202.284 271.041 203.3 270.268 204.485 269.351C210.087 268.935 215.915 268.698 221.613 268.582L217.53 262.67L166.966 270.914Z" fill="#1D222E"/>
<path d="M186.456 196.517L131.651 259.977C133.294 262.415 148.055 266.733 166.966 270.914L217.53 262.67L209.191 251.059C210.099 249.826 211.212 248.671 212.645 247.035C202.958 230.894 196.41 217.469 186.456 196.517Z" fill="url(#paint18_linear_8_16)"/>
<path d="M269.204 172.975C244.408 167.144 227.477 166.127 206.85 172.544C212.991 199.607 219.52 215.22 221.613 236.679C225.029 232.922 233.15 223.867 233.537 223.437L242.889 233.285L249.74 241.194C253.515 214.637 260.466 205.521 269.204 172.975Z" fill="url(#paint19_linear_8_16)"/>
<path d="M343.662 259.977L291.02 196.517L256.369 248.671L258.569 251.09L250.954 262.618L302.486 270.67C315.298 267.882 328.356 264.485 343.662 259.977Z" fill="url(#paint20_linear_8_16)"/>
<path d="M190.783 194.602L205.298 177.115L217.53 237.8L190.783 194.602Z" fill="#282B2E"/>
<path d="M274.5 175.935L287.648 194.602L259.467 237.8L274.5 175.935Z" fill="#282B2E"/>
<path d="M372.507 281.61L293.183 306.129L328.518 341.464L372.507 281.61Z" fill="url(#paint21_linear_8_16)"/>
<path d="M148.237 341.464L239.82 482.805L225.397 402.039L203.763 357.329L175.64 306.129L161.938 323.796L148.237 341.464Z" fill="url(#paint22_linear_8_16)"/>
<path d="M175.64 306.129L101.363 281.61L148.237 341.464L161.938 323.796L175.64 306.129Z" fill="url(#paint23_linear_8_16)"/>
<path d="M239.82 482.805L328.518 341.464L293.183 306.129L270.107 357.329L252.8 402.039L239.82 482.805Z" fill="url(#paint24_linear_8_16)"/>
<path d="M195.387 276.501C194.097 277.639 192.672 278.993 190.783 280.889C202.377 275.752 212.492 274.042 226.026 274.971L221.613 268.582C215.915 268.698 210.087 268.935 204.485 269.351C203.3 270.268 202.284 271.041 201.379 271.728L201.001 272.016L200.997 272.018C198.773 273.705 197.216 274.887 195.387 276.501Z" fill="#303132"/>
<path fill-rule="evenodd" clip-rule="evenodd" d="M270.828 292.402L277.318 280.889C264.625 276.793 258.006 274.826 242.889 274.826L238.863 280.919L234.596 287.379L230.438 281.36L226.026 274.971C212.492 274.042 202.377 275.752 190.783 280.889L200.158 293.87C203.254 294.463 206.104 295.007 208.746 295.502C220.2 297.646 227.735 298.854 234.396 299.058C242.292 299.3 248.959 298.131 259.467 295.438C262.811 294.582 266.543 293.571 270.828 292.402Z" fill="url(#paint25_linear_8_16)"/>
<path d="M277.318 280.889C275.859 279.429 273.916 277.849 271.892 276.34C266.919 272.63 261.454 269.351 261.454 269.351C261.454 269.351 255.632 268.987 246.914 268.733L242.889 274.826C258.006 274.826 264.625 276.793 277.318 280.889Z" fill="#303132"/>
<path d="M278.761 166.951L455.437 99.8864L460.485 96.5692L453.994 84.0217L314.033 135.561L250.762 158.861C259.731 160.025 268.744 162.734 278.761 166.951Z" fill="url(#paint26_linear_8_16)"/>
<path d="M455.437 99.8864L374.671 282.332L376.854 285.489L378.969 280.889L459.879 104.934L462.2 99.8864L460.485 96.5692L455.437 99.8864Z" fill="url(#paint27_linear_8_16)"/>
<path d="M17.3522 100.019L14.8283 104.934L19.6713 396.9L25.5672 388.075L19.4784 104.934L17.3522 100.019Z" fill="#242323"/>
<path d="M464.811 104.934L462.2 99.8864L459.879 104.934L455.437 388.431L460.588 395.675L464.811 104.934Z" fill="#363535"/>
<path d="M96.2189 282.332L19.4784 104.934L25.5672 388.075L96.2189 282.332Z" fill="url(#paint28_linear_8_16)"/>
<path d="M459.879 104.934L378.969 280.889L455.437 388.431L459.879 104.934Z" fill="url(#paint29_linear_8_16)"/>
<path d="M233.537 248.64H232.075L225.532 249.331L214.75 250.471L209.191 251.059L217.53 262.67L221.613 268.582L226.026 274.971L230.438 281.36L234.596 287.379L234.367 281.482L234.317 280.195L234.051 268.582L233.864 260.137L233.537 248.64Z" fill="url(#paint30_linear_8_16)"/>
<path d="M250.954 262.618L258.569 251.09L254.834 250.745L254.152 250.682L233.537 248.64L233.864 260.137L234.051 268.582L234.317 280.195L234.367 281.482L234.596 287.379L238.863 280.919L242.889 274.826L246.914 268.733L250.954 262.618Z" fill="url(#paint31_linear_8_16)"/>
<path d="M232.075 248.64H233.537V223.437C233.15 223.867 225.029 232.922 221.613 236.679C217.53 241.171 216.075 243.12 212.645 247.035C211.212 248.671 210.099 249.826 209.191 251.059L214.75 250.471L225.532 249.331L232.075 248.64Z" fill="url(#paint32_linear_8_16)"/>
<path d="M433.928 430.904L453.994 416.461L457.24 409.61L240.541 490.016L277.318 503.791L433.928 430.904Z" fill="url(#paint33_linear_8_16)"/>
<path d="M201.001 503.791H277.318L239.876 490.57L201.001 503.791Z" fill="url(#paint34_linear_8_16)"/>
<path d="M84.3777 452.274L201.001 503.791L239.876 490.57L237.983 489.08L19.8762 409.25L39.73 427.088L84.3777 452.274Z" fill="url(#paint35_linear_8_16)"/>
<path d="M233.537 223.437V248.64L254.152 250.682L254.834 250.745L258.569 251.09L256.369 248.671L249.74 241.194L242.889 233.285L233.537 223.437Z" fill="url(#paint36_linear_8_16)"/>
<path d="M310.096 129.453L422.592 88.3484L280.203 78.2526M310.096 129.453L280.203 78.2526M310.096 129.453L314.033 135.561M240.147 11.909L280.203 78.2526M240.147 11.909L201.6 78.2526M240.147 11.909L240.541 9.02448M170.198 129.453L201.6 78.2526M170.198 129.453L64.1923 92.6752L201.6 78.2526M170.198 129.453L166.966 136.598M238.024 68.1569L199.477 137.92C213.225 131.569 221.071 129.363 235.493 129.453M238.024 68.1569L274.5 137.92C259.29 131.616 249.916 129.542 235.493 129.453M238.024 68.1569L235.493 129.453M233.537 223.437V248.64M233.537 223.437C233.15 223.867 225.029 232.922 221.613 236.679M233.537 223.437L242.889 233.285L249.74 241.194M209.191 251.059C210.099 249.826 211.212 248.671 212.645 247.035M209.191 251.059L217.53 262.67M209.191 251.059L214.75 250.471L225.532 249.331L232.075 248.64H233.537M234.596 287.379L238.863 280.919L242.889 274.826M234.596 287.379L230.438 281.36L226.026 274.971M234.596 287.379L234.367 281.482L234.317 280.195L234.051 268.582L233.864 260.137M258.569 251.09L250.954 262.618M258.569 251.09L256.369 248.671M258.569 251.09L254.834 250.745L254.152 250.682M233.537 248.64L233.864 260.137M233.537 248.64L254.152 250.682M464.811 104.934L450.389 76.8104L240.541 9.02448M464.811 104.934L462.2 99.8864M464.811 104.934L460.588 395.675M277.318 503.791L433.928 430.904L453.994 416.461L457.24 409.61M277.318 503.791H201.001M277.318 503.791L240.541 490.016M277.318 503.791L239.876 490.57M201.001 503.791L84.3777 452.274L39.73 427.088L19.8762 409.25M201.001 503.791L239.876 490.57M19.8762 409.25L237.983 489.08M19.8762 409.25L19.6713 396.9M240.541 9.02448L28.5297 78.2526L25.5672 84.0217M25.5672 84.0217L28.5297 87.6273L166.966 136.598M25.5672 84.0217L19.8762 95.1042M457.24 409.61L460.485 402.76L460.588 395.675M457.24 409.61L240.541 490.016M240.541 490.016L239.876 490.57M240.541 490.016L237.983 489.08M239.876 490.57L237.983 489.08M199.437 166.951L100.642 282.332M199.437 166.951L112.541 134.14L25.6452 101.329M199.437 166.951C210.875 162.743 220.764 160.07 230 158.896M199.437 166.951C239.287 157.58 252.199 160.654 271.835 165.329C274.043 165.855 276.335 166.401 278.761 166.951M100.642 282.332L25.6452 399.154L220.349 472.709L199.437 443.143L100.642 282.332ZM100.642 282.332L25.6452 101.329M100.642 282.332C99.6822 283.54 97.4534 285.231 96.2189 282.332M25.6452 101.329L19.8762 95.1042M278.761 166.951L374.671 282.332M278.761 166.951L455.437 99.8864M278.761 166.951C268.744 162.734 259.731 160.025 250.762 158.861M374.671 282.332L455.437 99.8864M374.671 282.332L260.732 472.709L455.437 399.154L376.854 285.489M374.671 282.332L376.854 285.489M455.437 99.8864L460.485 96.5692M101.363 281.61L175.64 306.129M101.363 281.61L148.237 341.464M101.363 281.61L166.966 270.914M175.64 306.129L203.763 357.329L225.397 402.039L239.82 482.805M175.64 306.129L208.746 295.502M175.64 306.129L161.938 323.796L148.237 341.464M234.051 287.379L234.396 299.058M293.183 306.129L372.507 281.61M293.183 306.129L328.518 341.464M293.183 306.129L270.107 357.329L252.8 402.039L239.82 482.805M293.183 306.129L259.467 295.438M372.507 281.61L328.518 341.464M372.507 281.61L302.486 270.67M239.82 482.805L148.237 341.464M239.82 482.805L328.518 341.464M239.82 482.805L234.396 299.058M234.051 259.977L233.864 260.137M291.02 196.517L343.662 259.977C328.356 264.485 315.298 267.882 302.486 270.67M291.02 196.517L256.369 248.671M291.02 196.517C277.221 217.196 269.631 228.797 256.369 248.671M277.318 280.889L270.828 292.402C266.543 293.571 262.811 294.582 259.467 295.438M277.318 280.889C275.859 279.429 273.916 277.849 271.892 276.34M277.318 280.889C264.625 276.793 258.006 274.826 242.889 274.826M190.783 280.889L200.158 293.87C203.254 294.463 206.104 295.007 208.746 295.502M190.783 280.889C192.672 278.993 194.097 277.639 195.387 276.501M190.783 280.889C202.377 275.752 212.491 274.042 226.026 274.971M208.746 295.502C220.2 297.646 227.735 298.854 234.396 299.058M234.396 299.058C242.292 299.3 248.959 298.131 259.467 295.438M302.486 270.67C292.457 272.852 282.58 274.661 271.892 276.34M302.486 270.67L250.954 262.618M271.892 276.34C266.919 272.63 261.454 269.351 261.454 269.351C261.454 269.351 255.632 268.987 246.914 268.733M195.387 276.501C185.617 274.807 175.835 272.876 166.966 270.914M195.387 276.501C197.216 274.887 198.773 273.705 200.997 272.018L201.001 272.016M166.966 270.914C148.055 266.733 133.294 262.415 131.651 259.977L186.456 196.517C196.41 217.469 202.958 230.894 212.645 247.035M166.966 270.914L217.53 262.67M212.645 247.035C216.075 243.12 217.53 241.171 221.613 236.679M217.53 262.67L221.613 268.582M250.954 262.618L246.914 268.733M256.369 248.671L249.74 241.194M249.74 241.194C253.515 214.637 260.466 205.521 269.204 172.975C244.408 167.144 227.477 166.127 206.85 172.544C212.991 199.607 219.52 215.22 221.613 236.679M221.613 268.582C215.915 268.698 210.087 268.935 204.485 269.351C203.3 270.268 202.284 271.041 201.379 271.728M221.613 268.582L226.026 274.971M246.914 268.733L242.889 274.826M166.966 136.598L230 158.896M314.033 135.561L453.994 84.0217L460.485 96.5692M314.033 135.561L250.762 158.861M230 158.896C237.175 157.984 243.956 157.978 250.762 158.861M19.8762 95.1042L17.3522 100.019M17.3522 100.019L14.8283 104.934L19.6713 396.9M17.3522 100.019L19.4784 104.934M96.2189 285.253V282.332M96.2189 282.332L19.4784 104.934M96.2189 282.332L25.5672 388.075M19.6713 396.9L25.5672 388.075M460.485 96.5692L462.2 99.8864M462.2 99.8864L459.879 104.934M376.854 285.489L378.969 280.889M378.969 280.889L459.879 104.934M378.969 280.889L455.437 388.431M460.588 395.675L455.437 388.431M254.152 250.682C254.126 250.876 254.099 251.071 254.072 251.266L254.152 250.682ZM201.379 271.728C201.251 271.826 201.125 271.921 201.001 272.016M201.379 271.728L201.001 272.016M19.4784 104.934L25.5672 388.075M459.879 104.934L455.437 388.431M190.783 194.602L205.298 177.115L217.53 237.8L190.783 194.602ZM274.5 175.935L287.648 194.602L259.467 237.8L274.5 175.935Z" stroke="black"/>
</g>
<defs>
<filter id="filter0_dd_8_16" x="0.326263" y="0.498779" width="478.987" height="523.792" filterUnits="userSpaceOnUse" color-interpolation-filters="sRGB">
<feFlood flood-opacity="0" result="BackgroundImageFix"/>
<feColorMatrix in="SourceAlpha" type="matrix" values="0 0 0 0 0 0 0 0 0 0 0 0 0 0 0 0 0 0 127 0" result="hardAlpha"/>
<feOffset dy="2"/>
<feGaussianBlur stdDeviation="1.5"/>
<feColorMatrix type="matrix" values="0 0 0 0 0 0 0 0 0 0 0 0 0 0 0 0 0 0 0.3 0"/>
<feBlend mode="normal" in2="BackgroundImageFix" result="effect1_dropShadow_8_16"/>
<feColorMatrix in="SourceAlpha" type="matrix" values="0 0 0 0 0 0 0 0 0 0 0 0 0 0 0 0 0 0 127 0" result="hardAlpha"/>
<feMorphology radius="4" operator="dilate" in="SourceAlpha" result="effect2_dropShadow_8_16"/>
<feOffset dy="6"/>
<feGaussianBlur stdDeviation="5"/>
<feColorMatrix type="matrix" values="0 0 0 0 0 0 0 0 0 0 0 0 0 0 0 0 0 0 0.15 0"/>
<feBlend mode="normal" in2="effect1_dropShadow_8_16" result="effect2_dropShadow_8_16"/>
<feBlend mode="normal" in="SourceGraphic" in2="effect2_dropShadow_8_16" result="shape"/>
</filter>
<linearGradient id="paint0_linear_8_16" x1="-2.73134" y1="55.3263" x2="294.22" y2="526.725" gradientUnits="userSpaceOnUse">
<stop offset="0.0929528" stop-color="#821A13"/>
<stop offset="0.50354" stop-color="#EF6060"/>
</linearGradient>
<linearGradient id="paint1_linear_8_16" x1="255.966" y1="518.874" x2="-4.3734" y2="277.176" gradientUnits="userSpaceOnUse">
<stop offset="0.139415" stop-color="#6382BF"/>
<stop offset="1" stop-color="#10244C"/>
</linearGradient>
<linearGradient id="paint2_linear_8_16" x1="458.076" y1="98.4261" x2="105.014" y2="376.002" gradientUnits="userSpaceOnUse">
<stop stop-color="#982222"/>
<stop offset="0.52144" stop-color="#DC6060"/>
</linearGradient>
<linearGradient id="paint3_linear_8_16" x1="403.814" y1="282.319" x2="255.966" y2="482.234" gradientUnits="userSpaceOnUse">
<stop offset="0.0241303" stop-color="#244381"/>
<stop offset="0.985522" stop-color="#7796D4"/>
</linearGradient>
<linearGradient id="paint4_linear_8_16" x1="464.811" y1="370.937" x2="120.423" y2="-2.75618" gradientUnits="userSpaceOnUse">
<stop stop-color="#B1B3B6"/>
<stop offset="1" stop-color="#4E4E50"/>
</linearGradient>
<linearGradient id="paint5_linear_8_16" x1="239.82" y1="9.02448" x2="444.674" y2="458.542" gradientUnits="userSpaceOnUse">
<stop stop-color="#303033"/>
<stop offset="0.833258" stop-color="#919199"/>
</linearGradient>
<linearGradient id="paint6_linear_8_16" x1="239.82" y1="9.02448" x2="233.305" y2="256.324" gradientUnits="userSpaceOnUse">
<stop stop-color="#1A1C1F"/>
<stop offset="1" stop-color="#727885"/>
</linearGradient>
<linearGradient id="paint7_linear_8_16" x1="196.021" y1="45.2154" x2="288.401" y2="246.989" gradientUnits="userSpaceOnUse">
<stop offset="0.144819" stop-color="#5B0505"/>
<stop offset="0.887694" stop-color="#830202"/>
</linearGradient>
<linearGradient id="paint8_linear_8_16" x1="256.527" y1="73.1827" x2="182.112" y2="301.078" gradientUnits="userSpaceOnUse">
<stop offset="0.0545417" stop-color="#670D0D"/>
<stop offset="0.6956" stop-color="#E60303"/>
</linearGradient>
<linearGradient id="paint9_linear_8_16" x1="270.065" y1="89.2945" x2="52.5954" y2="23.269" gradientUnits="userSpaceOnUse">
<stop stop-color="#E7E7E9"/>
<stop offset="1" stop-color="#828283"/>
</linearGradient>
<linearGradient id="paint10_linear_8_16" x1="444.927" y1="87.1113" x2="246.427" y2="56.2991" gradientUnits="userSpaceOnUse">
<stop stop-color="#E7E7E9"/>
<stop offset="1" stop-color="#828283"/>
</linearGradient>
<linearGradient id="paint11_linear_8_16" x1="79.0812" y1="35.569" x2="230.173" y2="506.883" gradientUnits="userSpaceOnUse">
<stop stop-color="#242427"/>
<stop offset="1" stop-color="#82828D"/>
</linearGradient>
<linearGradient id="paint12_linear_8_16" x1="6.91197" y1="61.7447" x2="236.183" y2="505.669" gradientUnits="userSpaceOnUse">
<stop stop-color="#1A1C1F"/>
<stop offset="1" stop-color="#727885"/>
</linearGradient>
<linearGradient id="paint13_linear_8_16" x1="239.82" y1="317.505" x2="239.82" y2="503.791" gradientUnits="userSpaceOnUse">
<stop stop-color="#1A1C1F"/>
<stop offset="1" stop-color="#727885"/>
</linearGradient>
<linearGradient id="paint14_linear_8_16" x1="190.832" y1="290.545" x2="236.72" y2="504.456" gradientUnits="userSpaceOnUse">
<stop stop-color="#2F436C"/>
<stop offset="1" stop-color="#6B8CD0"/>
</linearGradient>
<linearGradient id="paint15_linear_8_16" x1="254.158" y1="284.545" x2="240.765" y2="503.848" gradientUnits="userSpaceOnUse">
<stop stop-color="#792929"/>
<stop offset="1" stop-color="#DF5252"/>
</linearGradient>
<linearGradient id="paint16_linear_8_16" x1="145.511" y1="260.548" x2="234.301" y2="505.789" gradientUnits="userSpaceOnUse">
<stop offset="0.0134479" stop-color="#273043"/>
<stop offset="0.5841" stop-color="#627AA9"/>
</linearGradient>
<linearGradient id="paint17_linear_8_16" x1="326.417" y1="224.046" x2="243.05" y2="504.75" gradientUnits="userSpaceOnUse">
<stop stop-color="#252B37"/>
<stop offset="0.712042" stop-color="#69799D"/>
</linearGradient>
<linearGradient id="paint18_linear_8_16" x1="134.143" y1="187.192" x2="228.898" y2="282.597" gradientUnits="userSpaceOnUse">
<stop stop-color="#A8A8A8"/>
<stop offset="1" stop-color="#424242"/>
</linearGradient>
<linearGradient id="paint19_linear_8_16" x1="239.82" y1="143.671" x2="239.82" y2="256.408" gradientUnits="userSpaceOnUse">
<stop stop-color="#C7C6C6"/>
<stop offset="1" stop-color="#616060"/>
</linearGradient>
<linearGradient id="paint20_linear_8_16" x1="292.213" y1="202.552" x2="236.311" y2="273.548" gradientUnits="userSpaceOnUse">
<stop stop-color="#969696"/>
<stop offset="1" stop-color="#303030"/>
</linearGradient>
<linearGradient id="paint21_linear_8_16" x1="356.515" y1="359.524" x2="166.415" y2="65.9597" gradientUnits="userSpaceOnUse">
<stop stop-color="#845454"/>
<stop offset="0.337642" stop-color="#5B1E1E"/>
</linearGradient>
<linearGradient id="paint22_linear_8_16" x1="239.82" y1="333.141" x2="82.2063" y2="326.074" gradientUnits="userSpaceOnUse">
<stop stop-color="#752525"/>
<stop offset="1" stop-color="#DE4949"/>
</linearGradient>
<linearGradient id="paint23_linear_8_16" x1="47.3451" y1="378.189" x2="242.086" y2="182.602" gradientUnits="userSpaceOnUse">
<stop offset="0.276134" stop-color="#8A3C3C"/>
<stop offset="0.533964" stop-color="#633333"/>
</linearGradient>
<linearGradient id="paint24_linear_8_16" x1="239.82" y1="420.132" x2="405.487" y2="212.381" gradientUnits="userSpaceOnUse">
<stop stop-color="#2E4471"/>
<stop offset="1" stop-color="#7596DB"/>
</linearGradient>
<linearGradient id="paint25_linear_8_16" x1="231.389" y1="270.825" x2="235.775" y2="371.971" gradientUnits="userSpaceOnUse">
<stop offset="0.0433117" stop-color="#323131"/>
<stop offset="0.444285" stop-color="#AFAFAF"/>
</linearGradient>
<linearGradient id="paint26_linear_8_16" x1="433.581" y1="64.3663" x2="250.785" y2="508.306" gradientUnits="userSpaceOnUse">
<stop stop-color="#1B1B1C"/>
<stop offset="1" stop-color="#7F7F82"/>
</linearGradient>
<linearGradient id="paint27_linear_8_16" x1="497.656" y1="3.56175" x2="243.883" y2="505.844" gradientUnits="userSpaceOnUse">
<stop/>
<stop offset="1" stop-color="#666666"/>
</linearGradient>
<linearGradient id="paint28_linear_8_16" x1="72.252" y1="286.945" x2="-78.3952" y2="95.3118" gradientUnits="userSpaceOnUse">
<stop stop-color="#EBE8E8"/>
<stop offset="1" stop-color="#858383"/>
</linearGradient>
<linearGradient id="paint29_linear_8_16" x1="205.672" y1="434.663" x2="513.355" y2="82.8391" gradientUnits="userSpaceOnUse">
<stop stop-color="#E7E7E9"/>
<stop offset="1" stop-color="#828283"/>
</linearGradient>
<linearGradient id="paint30_linear_8_16" x1="236.469" y1="245.657" x2="188.023" y2="295.711" gradientUnits="userSpaceOnUse">
<stop offset="0.0863463" stop-color="#640505"/>
<stop offset="0.687499" stop-color="#EB1919"/>
</linearGradient>
<linearGradient id="paint31_linear_8_16" x1="225.882" y1="233.574" x2="277.579" y2="311.833" gradientUnits="userSpaceOnUse">
<stop offset="0.0626397" stop-color="#4B0000"/>
<stop offset="0.644835" stop-color="#FD1616"/>
</linearGradient>
<linearGradient id="paint32_linear_8_16" x1="185.07" y1="173.154" x2="265.902" y2="318.951" gradientUnits="userSpaceOnUse">
<stop offset="0.297186" stop-color="#D40000"/>
<stop offset="0.601019" stop-color="#280709"/>
</linearGradient>
<linearGradient id="paint33_linear_8_16" x1="371.624" y1="570.158" x2="360.971" y2="336.461" gradientUnits="userSpaceOnUse">
<stop/>
<stop offset="0.723553" stop-color="#666666"/>
</linearGradient>
<linearGradient id="paint34_linear_8_16" x1="239.82" y1="479.527" x2="239.82" y2="503.791" gradientUnits="userSpaceOnUse">
<stop stop-color="#252525"/>
<stop offset="1" stop-color="#8B8A8A"/>
</linearGradient>
<linearGradient id="paint35_linear_8_16" x1="141.165" y1="492.125" x2="140.585" y2="373.337" gradientUnits="userSpaceOnUse">
<stop stop-color="#393737"/>
<stop offset="1" stop-color="#9F9999"/>
</linearGradient>
<linearGradient id="paint36_linear_8_16" x1="230.253" y1="249.607" x2="260.538" y2="220.736" gradientUnits="userSpaceOnUse">
<stop offset="0.088786" stop-color="#660C0F"/>
<stop offset="1" stop-color="#FF0004"/>
</linearGradient>
</defs>
</svg>
